<svg id="guides" xmlns="http://www.w3.org/2000/svg" viewBox="0 0 146.2 166.7">
  <defs>
    <style>
      .cls-1 {
        fill: none;
        stroke: #00a651;
        stroke-width: 0.1px;
      }

      .cls-2 {
        fill: #231f20;
      }
    </style>
  </defs>
  <g>
    <path class="cls-1" d="M800-99" transform="translate(-323.5 -166.6)"/>
    <path class="cls-1" d="M600-99" transform="translate(-323.5 -166.6)"/>
    <path class="cls-1" d="M879.3,500" transform="translate(-323.5 -166.6)"/>
  </g>
  <polygon class="cls-2" points="69.9 163.7 35.6 163.7 73.1 83.4 38.9 83.4 76.3 3 110.6 3 73.1 83.4 107.4 83.4 146.2 0 133.4 0 133.4 0 49.4 0 49.4 0 43.5 0 4.6 83.4 38.9 83.4 0 166.7 11.1 166.7 11.1 166.7 95.1 166.7 95.1 166.7 102.8 166.7 141.6 83.4 107.4 83.4 69.9 163.7"/>
</svg>
